<svg xmlns="http://www.w3.org/2000/svg" viewBox="25 175 780 260">
  <defs>
    <style>
      .st0 {
        font-family: MarisaBold, Marisa;
        font-size: 21px;
      }

      .st0, .st1 {
        isolation: isolate;
      }

      .st0, .st2 {
        fill: #e1ccad;
      }
    </style>
  </defs>
  <g id="Camada_26">
    <g>
      <path class="st2" d="M351.07,285.38h-9.69v-1.73l8.06-1.63v-56.58l-8.06-1.63v-1.73h25.51v1.73l-7.96,1.63v56.58l7.96,1.63v1.73h-15.82ZM353.27,252.78h39.7v2.4h-39.7v-2.4ZM390.38,285.38h-9.59v-1.73l7.96-1.63v-56.58l-7.96-1.63v-1.73h25.51v1.73l-8.06,1.63v56.58l8.06,1.63v1.73h-15.92Z"/>
      <path class="st2" d="M433.58,282.5c-4.25-2.75-7.46-6.6-9.64-11.55-2.17-4.95-3.26-10.79-3.26-17.5s1.1-12.42,3.31-17.31c2.21-4.89,5.43-8.66,9.69-11.32,4.25-2.65,9.35-3.98,15.29-3.98s11.04,1.33,15.29,3.98c4.25,2.65,7.48,6.44,9.69,11.36,2.21,4.92,3.31,10.64,3.31,17.17s-1.1,12.66-3.31,17.64c-2.21,4.99-5.43,8.84-9.69,11.56-4.25,2.72-9.38,4.07-15.39,4.07s-11.04-1.37-15.29-4.12h0ZM458.76,280.35c2.75-2.52,4.81-6.1,6.19-10.74,1.37-4.63,2.06-10.05,2.06-16.25,0-9.27-1.57-16.59-4.7-21.96s-7.58-8.05-13.33-8.05-10.28,2.69-13.38,8.05c-3.1,5.37-4.65,12.69-4.65,21.96,0,6.27.69,11.7,2.06,16.3,1.37,4.6,3.4,8.17,6.09,10.69,2.69,2.53,5.98,3.79,9.88,3.79s7.03-1.26,9.78-3.79Z"/>
      <path class="st2" d="M491.07,285.38v-1.73l8.54-1.82h2.4v3.55h-10.94ZM503.44,225.64h-2.21l-8.44-1.92v-1.63h10.64v3.55h0ZM502,225.45l2.3-.67-2.01,60.6h-2.88l1.92-63.29h8.92l21.67,54.18-5.08,7.77,24.36-61.95h3.36l-25.6,64.44h-2.21l-24.74-61.08h0ZM499.89,281.83h2.4l8.53,1.82v1.73h-10.93v-3.55h0ZM544.29,285.38v-1.73l8.54-1.82h2.11v3.55h-10.65ZM551.39,222.09h9.11l1.34,63.29h-9.01l-1.44-63.29ZM567.98,222.09v1.63l-10.93,1.92h-4.32v-3.55h15.25ZM555.13,281.83h6.71l8.53,1.82v1.73h-15.25v-3.55h0Z"/>
      <path class="st2" d="M593.58,285.38h-9.69v-1.73l8.05-1.63v-56.58l-8.05-1.63v-1.73h17.45v63.29h-7.77.01ZM595.02,222.09h35v17.55h-1.63l-5.37-15.06h-28v-2.49ZM595.02,282.89h28.77l5.47-15.15h1.53v17.64h-35.77v-2.49ZM600.58,252.49h17.64l2.78-9.88h1.53v22.34h-1.53l-2.78-9.88h-17.64v-2.59h0Z"/>
      <path class="st2" d="M375.66,369.08c-3.36,2.43-7.56,3.64-12.61,3.64-3.64,0-6.81-.69-9.49-2.06-2.69-1.38-4.73-3.23-6.14-5.56s-2.11-4.94-2.11-7.82c0-3.51.97-6.7,2.92-9.54s4.47-5.19,7.58-7.05c3.1-1.85,6.41-3.07,9.92-3.64l1.25,1.15c-3.58,1.47-6.54,3.45-8.87,5.95-2.33,2.49-3.5,5.79-3.5,9.88s1.23,7.53,3.69,9.93,5.67,3.6,9.64,3.6c3.39,0,6.22-.83,8.49-2.49s4.36-3.84,6.28-6.52l1.05,1.72c-2.05,3.45-4.75,6.39-8.1,8.82h0ZM386.55,366.2c-5.69-4.35-12.63-11.28-20.81-20.81-2.69-3.2-4.86-6.01-6.52-8.44s-2.94-4.78-3.84-7.05-1.34-4.59-1.34-6.95c0-3,.75-5.74,2.25-8.2,1.5-2.46,3.64-4.39,6.42-5.8,2.78-1.41,5.93-2.11,9.45-2.11,3.07,0,5.74.59,8.01,1.77,2.27,1.18,4.01,2.78,5.23,4.79,1.21,2.01,1.82,4.3,1.82,6.86,0,4.35-1.57,8.17-4.7,11.46-3.13,3.29-7.06,5.48-11.79,6.57l-1.15-1.25c2.94-1.21,5.48-3.28,7.62-6.19,2.14-2.91,3.21-6.6,3.21-11.08,0-3.45-.75-6.12-2.25-8.01-1.5-1.88-3.63-2.83-6.38-2.83-2.94,0-5.26.93-6.95,2.78-1.69,1.86-2.54,4.22-2.54,7.1,0,3.13.89,6.28,2.69,9.45,1.79,3.17,4.6,6.86,8.44,11.08,6.33,7.03,11.47,12.37,15.44,16.01,3.96,3.64,7.11,6.09,9.45,7.34,2.33,1.25,4.52,1.87,6.57,1.87,2.49,0,4.52-.89,6.09-2.69,1.57-1.79,2.35-4.15,2.35-7.1,0-.77-.1-1.6-.29-2.49l1.44-.1c.58,1.47.86,3.29.86,5.47,0,2.94-.61,5.55-1.82,7.81-1.22,2.27-2.85,4.04-4.89,5.32-2.05,1.28-4.35,1.92-6.9,1.92-4.41,0-9.46-2.17-15.15-6.52l-.02.02ZM395.47,339.97c3.71-3.48,7.58-5.23,11.6-5.23,2.3,0,4.23.61,5.8,1.82,1.57,1.21,2.35,2.94,2.35,5.18,0,1.85-.51,3.31-1.53,4.36-1.02,1.06-2.33,1.58-3.93,1.58-.9,0-1.74-.19-2.54-.58-.8-.38-1.49-1.02-2.06-1.92.96-.45,1.68-1.04,2.16-1.77.48-.73.72-1.52.72-2.35,0-.96-.29-1.76-.86-2.4-.58-.64-1.47-.96-2.68-.96-2.62,0-5.51,1.69-8.68,5.08s-5.93,7.42-8.29,12.08l-1.44-1.53c2.56-5.43,5.69-9.89,9.4-13.38l-.02.02Z"/>
      <path class="st2" d="M489.25,309.72l-5.47,1.44-22.06,61.28h-3.45l-21.1-61.37-5.85-1.34v-1.63h22.82v1.63l-6.9,1.34,16.3,48.52,17.07-48.52-7-1.34v-1.63h15.63v1.63h.01Z"/>
      <path class="st2" d="M510.83,371.38h-9.69v-1.73l8.05-1.63v-56.58l-8.05-1.63v-1.73h25.51v1.73l-7.96,1.63v56.58l7.96,1.63v1.73h-15.82Z"/>
      <path class="st2" d="M549.56,371.38h-9.69v-1.73l8.06-1.63v-56.58l-8.06-1.63v-1.73h25.51v1.73l-8.05,1.63v59.93h-7.77ZM556.76,368.89h21.38l5.47-15.15h1.53v17.64h-28.38v-2.49Z"/>
      <path class="st2" d="M608.44,371.38h-9.69v-1.73l8.05-1.63v-56.58l-8.05-1.63v-1.73h25.51v1.73l-8.06,1.63v59.93h-7.77.01ZM615.63,368.89h21.38l5.47-15.15h1.53v17.64h-28.38v-2.49Z"/>
      <path class="st2" d="M713.83,369.65v1.73h-22.34v-1.73l6.23-1.34-15.25-48.62-16.69,48.52,7.1,1.44v1.73h-16.3v-1.73l6.04-1.54,21.58-61.18h3.64l20.23,61.37,5.75,1.34h.01ZM670.29,348.36h24.84v2.49h-24.84v-2.49Z"/>
      <path class="st2" d="M733.72,370.37c-3.16-1.5-5.5-3.39-7-5.66s-2.25-4.52-2.25-6.76.62-4.11,1.87-5.61,2.83-2.25,4.75-2.25c1.53,0,2.8.43,3.79,1.29.99.86,1.52,1.97,1.58,3.31-1.22.32-2.17.97-2.88,1.96-.7.99-1.05,2.19-1.05,3.6,0,1.73.56,3.34,1.68,4.84s2.75,2.73,4.89,3.69,4.65,1.44,7.53,1.44c4.41,0,7.97-1.01,10.69-3.02,2.72-2.01,4.08-4.71,4.08-8.1,0-2.68-.77-5.06-2.3-7.14-1.53-2.08-3.44-3.87-5.71-5.37s-5.32-3.24-9.16-5.23c-3.84-2.11-6.9-3.91-9.21-5.42-2.3-1.5-4.25-3.32-5.85-5.46-1.6-2.14-2.4-4.55-2.4-7.24,0-3.26.93-6.14,2.78-8.63,1.85-2.49,4.46-4.41,7.82-5.75s7.17-2.01,11.46-2.01c3.9,0,7.22.61,9.97,1.82,2.75,1.21,4.79,2.81,6.14,4.79,1.34,1.98,2.01,4.16,2.01,6.52,0,2.05-.56,3.73-1.68,5.03-1.12,1.31-2.61,1.97-4.46,1.97-1.47,0-2.68-.4-3.64-1.2-.96-.8-1.57-1.84-1.82-3.12,1.47-.7,2.56-1.55,3.26-2.54.7-.99,1.05-2.19,1.05-3.6,0-2.62-1.07-4.52-3.21-5.71-2.14-1.18-4.94-1.77-8.39-1.77-4.48,0-7.98.86-10.5,2.59-2.53,1.73-3.79,4.16-3.79,7.29,0,1.85.64,3.52,1.92,4.99,1.28,1.47,2.88,2.8,4.79,3.98,1.92,1.18,4.54,2.64,7.86,4.36,4.41,2.24,7.97,4.25,10.69,6.04,2.72,1.79,5.03,4.01,6.95,6.67,1.92,2.65,2.88,5.74,2.88,9.25s-.94,6.59-2.83,9.4-4.59,5.02-8.1,6.62c-3.52,1.6-7.64,2.4-12.37,2.4s-8.68-.75-11.84-2.25h0Z"/>
    </g>
    <g>
      <path class="st2" d="M176.2,392.89c-10.74-9.4-17.79-21.45-22.15-34.56,1.51,18.94,9.42,34.61,23.36,47.04l8.11,6.03c-4.49-1.22-8.29-3.19-12.35-5.24-9.77-4.93-18.05-11.58-25.14-19.89-8.15-9.54-15.52-19.59-14.78-32.66.5-8.97,3.05-17.41,7.2-25.28,8.29-15.74,21.46-28.52,38.41-34.17,22.92-7.63,49.43,1.53,56.72,25.16,2.39,7.74,1.24,16.43-4.33,22.95.44-5.97.19-12.04-3.97-16.47-9.6-10.24-25.39-12.15-37.33-4.91-12.14,7.69-17.7,22.08-14.31,36.11,4.02,16.66,16.97,29.31,32.22,36.85,15.63,7.63,32.97,9.4,50.47,6.03-26.94,17.15-58.43,14.15-82.11-6.98h-.02Z"/>
      <path class="st2" d="M180.52,284.82c-7.37-14.39-16.13-27.37-27.09-39.09-14.9-15.45-34.98-29.72-57.3-29.5.79-3.07,1.91-5.84,3.7-8.62,10.5-16.33,30.36-24.84,49.48-20.75,26.88,5.76,43.07,36.67,49.35,61.8,2.66,11.57,4.45,22.97,5.69,34.92-8.09-.96-15.55-1.02-23.83,1.22v.02Z"/>
      <path class="st2" d="M150.46,301.76c-10.97-11.16-22.89-20.03-36.41-26.65-18.72-8.36-41.29-12.1-59.37-.78-2.35-7.35-1.22-14.47,1.37-21.26,2.73-7.16,7.22-13.03,12.88-18.17,17.87-16.23,41.16-10.52,59.88,2.22,9.1,6.19,16.82,13.52,24,21.91,7.54,8.84,13.97,18.11,20.4,28.27-8.44,3.63-15.9,8.2-22.75,14.44v.02Z"/>
      <path class="st2" d="M83.94,321.01c-12.93.79-27.83,5.19-35.23,15.87-6.37-3.77-9.95-10.03-10.92-17.09-.82-5.95.42-11.6,2.67-17.08,9.31-22.69,32.59-28.44,55.45-23.47,10.9,2.58,20.81,7.32,30.14,13.53,6.6,4.55,12.55,9.38,18.53,15.08-6.29,7.11-11.14,14.92-14.91,23.89-14.38-6.82-29.32-11.63-45.72-10.73h0Z"/>
      <path class="st2" d="M225.94,290.85c-4.83-2.45-9.16-4.36-14.26-5.58-.69-25.34-3.44-50.71-16.65-72.83-7.39-12.38-17.53-22.56-30.99-28.97,4.69-5.34,10.83-8.64,17.66-10.26,14.53-3.44,29.24,1.49,39.42,12.28,9.94,10.55,15.82,23.82,17.15,38.37,1.01,11-.33,21.57-2.8,32.39l-9.53,34.6Z"/>
      <path class="st2" d="M175.84,415.47c11.63,4.91,23.35,5.93,36.35,5.51-9.22,4.19-19.43,5.41-29.78,5.23-9.53-.17-18.22-2.55-26.92-6.31-10.36-4.48-18.86-11.65-25.8-20.55l-9.27-10.86c-10.75-11.02-24.5-15.25-39.39-18.27-9.22-1.87-19.37-3.58-25.01-10.85-3.16-4.06-3.77-9.22-1.56-13.79,1.81-3.75,4.52-6.48,8.36-8.4,19.82-9.91,44.02-6.18,63.7,3.19-1.67,7.65-2.19,14.86-.97,22.62l-5.56-1.61c-14.12-4.54-29.08-3.92-42.83,1.57l-7.21,2.33,14.94-.39c15.82-.41,36.84,4.1,49,14.52,4.47,3.83,8.03,8.18,11.69,12.81,8.07,10.22,17.98,18.09,30.25,23.26h.01Z"/>
      <path class="st2" d="M245.32,313.82c-3.3-7.06-6.75-13.4-12.94-18.41,3.96-10.87,7.52-21.38,10.61-32.47,5.63-22.11,9.05-45.7-4.47-65.55,9.39-.61,17.87,2.59,24.61,8.65,9.57,8.6,14.24,20.97,13.33,33.92-1.19,16.76-11.34,35.74-19.05,50.88l-12.09,22.98h0Z"/>
      <path class="st2" d="M293.68,244.38c-2.49-2.31-5.39-4.24-8.64-5.63l-.67,8.67c-1.01,6.08-2.59,11.76-4.86,17.5-3.76,9.5-8.06,18.32-12.89,27.34l-18.16,33.91c-1.17,2.19-1.06,5.14-1.7,7.49-2.54,9.48-7.85,16.57-11.51,27.85,5.64-5.48,10.83-10.52,10.83-10.52l8.97-8.71c9.1-9.78,17.2-19.99,25.22-30.7,8.23-11.01,20.11-26.92,22.58-39.94,1.92-10.1-1.81-20.4-9.19-27.26h.02Z"/>
      <path class="st2" d="M233.97,370.04c.76-.21,1.65-1.31,2.15-1.61,18.03-10.59,30.63-24.56,43.75-40.67l17.76-24.61,7.6-13.67c8.9,7.83,10.61,19.91,5.51,30.3-2.93,5.97-6.68,11.23-11.5,16.09-13.1,13.2-28.87,23.32-46.04,30.38-6.21,2.13-11.87,3.82-18.32,4.66l-1.16-.1c-.22-.02.03-.72.25-.77h0Z"/>
      <path class="st2" d="M256.55,381.2l17.45-6.23c-22.2,19.61-55.6,21.17-77.48,1.33-4.04-3.66-6.99-7.77-9.4-12.56-4.38-9.76-4.05-21.11,2.45-30.15-3.71,13.68.46,24.8,9.84,34.98,15.47,14.38,36.52,17.87,57.13,12.62h.01Z"/>
    </g>
    <g class="st1">
      <text class="st0" transform="translate(571.38 394.68)"><tspan x="0" y="0">BY MONTE DOURADO</tspan></text>
    </g>
  </g>
  </svg>