<svg xmlns="http://www.w3.org/2000/svg" viewBox="25 175 300 265">
  <defs>
    <style>
      .st0 {
        fill: #e1ccad;
      }
    </style>
  </defs>
  <g id="Camada_26">
    <g>
      <path class="st0" d="M176.2,392.89c-10.74-9.4-17.79-21.45-22.15-34.56,1.51,18.94,9.42,34.61,23.36,47.04l8.11,6.03c-4.49-1.22-8.29-3.19-12.35-5.24-9.77-4.93-18.05-11.58-25.14-19.89-8.15-9.54-15.52-19.59-14.78-32.66.5-8.97,3.05-17.41,7.2-25.28,8.29-15.74,21.46-28.52,38.41-34.17,22.92-7.63,49.43,1.53,56.72,25.16,2.39,7.74,1.24,16.43-4.33,22.95.44-5.97.19-12.04-3.97-16.47-9.6-10.24-25.39-12.15-37.33-4.91-12.14,7.69-17.7,22.08-14.31,36.11,4.02,16.66,16.97,29.31,32.22,36.85,15.63,7.63,32.97,9.4,50.47,6.03-26.94,17.15-58.43,14.15-82.11-6.98h-.02Z"/>
      <path class="st0" d="M180.52,284.82c-7.37-14.39-16.13-27.37-27.09-39.09-14.9-15.45-34.98-29.72-57.3-29.5.79-3.07,1.91-5.84,3.7-8.62,10.5-16.33,30.36-24.84,49.48-20.75,26.88,5.76,43.07,36.67,49.35,61.8,2.66,11.57,4.45,22.97,5.69,34.92-8.09-.96-15.55-1.02-23.83,1.22v.02Z"/>
      <path class="st0" d="M150.46,301.76c-10.97-11.16-22.89-20.03-36.41-26.65-18.72-8.36-41.29-12.1-59.37-.78-2.35-7.35-1.22-14.47,1.37-21.26,2.73-7.16,7.22-13.03,12.88-18.17,17.87-16.23,41.16-10.52,59.88,2.22,9.1,6.19,16.82,13.52,24,21.91,7.54,8.84,13.97,18.11,20.4,28.27-8.44,3.63-15.9,8.2-22.75,14.44v.02Z"/>
      <path class="st0" d="M83.94,321.01c-12.93.79-27.83,5.19-35.23,15.87-6.37-3.77-9.95-10.03-10.92-17.09-.82-5.95.42-11.6,2.67-17.08,9.31-22.69,32.59-28.44,55.45-23.47,10.9,2.58,20.81,7.32,30.14,13.53,6.6,4.55,12.55,9.38,18.53,15.08-6.29,7.11-11.14,14.92-14.91,23.89-14.38-6.82-29.32-11.63-45.72-10.73h0Z"/>
      <path class="st0" d="M225.94,290.85c-4.83-2.45-9.16-4.36-14.26-5.58-.69-25.34-3.44-50.71-16.65-72.83-7.39-12.38-17.53-22.56-30.99-28.97,4.69-5.34,10.83-8.64,17.66-10.26,14.53-3.44,29.24,1.49,39.42,12.28,9.94,10.55,15.82,23.82,17.15,38.37,1.01,11-.33,21.57-2.8,32.39l-9.53,34.6Z"/>
      <path class="st0" d="M175.84,415.47c11.63,4.91,23.35,5.93,36.35,5.51-9.22,4.19-19.43,5.41-29.78,5.23-9.53-.17-18.22-2.55-26.92-6.31-10.36-4.48-18.86-11.65-25.8-20.55l-9.27-10.86c-10.75-11.02-24.5-15.25-39.39-18.27-9.22-1.87-19.37-3.58-25.01-10.85-3.16-4.06-3.77-9.22-1.56-13.79,1.81-3.75,4.52-6.48,8.36-8.4,19.82-9.91,44.02-6.18,63.7,3.19-1.67,7.65-2.19,14.86-.97,22.62l-5.56-1.61c-14.12-4.54-29.08-3.92-42.83,1.57l-7.21,2.33,14.94-.39c15.82-.41,36.84,4.1,49,14.52,4.47,3.83,8.03,8.18,11.69,12.81,8.07,10.22,17.98,18.09,30.25,23.26h.01Z"/>
      <path class="st0" d="M245.32,313.82c-3.3-7.06-6.75-13.4-12.94-18.41,3.96-10.87,7.52-21.38,10.61-32.47,5.63-22.11,9.05-45.7-4.47-65.55,9.39-.61,17.87,2.59,24.61,8.65,9.57,8.6,14.24,20.97,13.33,33.92-1.19,16.76-11.34,35.74-19.05,50.88l-12.09,22.98h0Z"/>
      <path class="st0" d="M293.68,244.38c-2.49-2.31-5.39-4.24-8.64-5.63l-.67,8.67c-1.01,6.08-2.59,11.76-4.86,17.5-3.76,9.5-8.06,18.32-12.89,27.34l-18.16,33.91c-1.17,2.19-1.06,5.14-1.7,7.49-2.54,9.48-7.85,16.57-11.51,27.85,5.64-5.48,10.83-10.52,10.83-10.52l8.97-8.71c9.1-9.78,17.2-19.99,25.22-30.7,8.23-11.01,20.11-26.92,22.58-39.94,1.92-10.1-1.81-20.4-9.19-27.26h.02Z"/>
      <path class="st0" d="M233.97,370.04c.76-.21,1.65-1.31,2.15-1.61,18.03-10.59,30.63-24.56,43.75-40.67l17.76-24.61,7.6-13.67c8.9,7.83,10.61,19.91,5.51,30.3-2.93,5.97-6.68,11.23-11.5,16.09-13.1,13.2-28.87,23.32-46.04,30.38-6.21,2.13-11.87,3.82-18.32,4.66l-1.16-.1c-.22-.02.03-.72.25-.77h0Z"/>
      <path class="st0" d="M256.55,381.2l17.45-6.23c-22.2,19.61-55.6,21.17-77.48,1.33-4.04-3.66-6.99-7.77-9.4-12.56-4.38-9.76-4.05-21.11,2.45-30.15-3.71,13.68.46,24.8,9.84,34.98,15.47,14.38,36.52,17.87,57.13,12.62h.01Z"/>
    </g>
  </g>
  </svg>